# xmcd
#
# Track frame offsets: 
#        150
#        22464
#        40698
#        59646
#        75845
#        94201
#        111891
#        128511
#        149063
#        166821
#        187163
#        207531
#
# Disc length: 3045 seconds
#
# Revision: 0
# Processed by: cddbd v1.5.2PL0 Copyright (c) Steve Scherf et al.
# Submitted via: ExactAudioCopy v1.0b1
#
DISCID=af0be30c
DTITLE=Titiek Puspa - Terima Kasih Tuhan
DYEAR=2007
DGENRE=Pop
TTITLE0=Terima Kasih Tuhan
TTITLE1=Chandra Buana - feat Delon-Mike-Judika
TTITLE2=Cinta Putih
TTITLE3=Dua Sejoli
TTITLE4=Balada Pelaut
TTITLE5=Bengawan Solo
TTITLE6=Si Hitam - Duet with Pinkan Mambo
TTITLE7=Esok Malam Kan Ku Jelang
TTITLE8=Historia De Un Amor
TTITLE9=Bubuy Bulan
TTITLE10=Kasih Diantara Remaja
TTITLE11=Salam Cinta Dan Doa - Feat Andy Rif - Pinkan Mambo - Rio Febr
TTITLE11=ian - Terry
EXTD=
EXTT0=
EXTT1=
EXTT2=
EXTT3=
EXTT4=
EXTT5=
EXTT6=
EXTT7=
EXTT8=
EXTT9=
EXTT10=
EXTT11=
PLAYORDER=
